<svg xmlns="http://www.w3.org/2000/svg" viewBox="0 0 32 32">
  <defs>
    <linearGradient id="grad" x1="0%" y1="0%" x2="100%" y2="100%">
      <stop offset="0%" style="stop-color:#4d9fff;stop-opacity:1" />
      <stop offset="100%" style="stop-color:#a78bfa;stop-opacity:1" />
    </linearGradient>
  </defs>
  
  <!-- Background -->
  <rect width="32" height="32" rx="6" fill="#0a0a0f"/>
  
  <!-- GPU Grid (4x4 processing units) -->
  <g fill="url(#grad)">
    <!-- Row 1 -->
    <rect x="5" y="5" width="4" height="4" rx="1"/>
    <rect x="11" y="5" width="4" height="4" rx="1"/>
    <rect x="17" y="5" width="4" height="4" rx="1"/>
    <rect x="23" y="5" width="4" height="4" rx="1"/>
    
    <!-- Row 2 -->
    <rect x="5" y="11" width="4" height="4" rx="1"/>
    <rect x="11" y="11" width="4" height="4" rx="1"/>
    <rect x="17" y="11" width="4" height="4" rx="1"/>
    <rect x="23" y="11" width="4" height="4" rx="1"/>
    
    <!-- Row 3 -->
    <rect x="5" y="17" width="4" height="4" rx="1"/>
    <rect x="11" y="17" width="4" height="4" rx="1"/>
    <rect x="17" y="17" width="4" height="4" rx="1"/>
    <rect x="23" y="17" width="4" height="4" rx="1"/>
    
    <!-- Row 4 -->
    <rect x="5" y="23" width="4" height="4" rx="1"/>
    <rect x="11" y="23" width="4" height="4" rx="1"/>
    <rect x="17" y="23" width="4" height="4" rx="1"/>
    <rect x="23" y="23" width="4" height="4" rx="1"/>
  </g>
</svg>
